<svg width="40" height="40" viewBox="0 0 40 40" fill="none" xmlns="http://www.w3.org/2000/svg">
<circle cx="20" cy="20" r="20" fill="#C13584"/>
<path d="M20 16.4062C19.3542 16.4062 18.75 16.5729 18.1875 16.9062C17.6458 17.2188 17.2083 17.6562 16.875 18.2188C16.5625 18.7604 16.4062 19.3542 16.4062 20C16.4062 20.6458 16.5625 21.25 16.875 21.8125C17.2083 22.3542 17.6458 22.7917 18.1875 23.125C18.75 23.4375 19.3542 23.5938 20 23.5938C20.6458 23.5938 21.2396 23.4375 21.7812 23.125C22.3438 22.7917 22.7812 22.3542 23.0938 21.8125C23.4271 21.25 23.5938 20.6458 23.5938 20C23.5938 19.3542 23.4271 18.7604 23.0938 18.2188C22.7812 17.6562 22.3438 17.2188 21.7812 16.9062C21.2396 16.5729 20.6458 16.4062 20 16.4062ZM20 22.3438C19.3542 22.3438 18.8021 22.1146 18.3438 21.6562C17.8854 21.1979 17.6562 20.6458 17.6562 20C17.6562 19.3542 17.8854 18.8021 18.3438 18.3438C18.8021 17.8854 19.3542 17.6562 20 17.6562C20.6458 17.6562 21.1979 17.8854 21.6562 18.3438C22.1146 18.8021 22.3438 19.3542 22.3438 20C22.3438 20.6458 22.1146 21.1979 21.6562 21.6562C21.1979 22.1146 20.6458 22.3438 20 22.3438ZM24.5938 16.25C24.5729 16.4792 24.4792 16.6771 24.3125 16.8438C24.1667 17.0104 23.9792 17.0938 23.75 17.0938C23.5208 17.0938 23.3229 17.0104 23.1562 16.8438C22.9896 16.6771 22.9062 16.4792 22.9062 16.25C22.9062 16.0208 22.9896 15.8229 23.1562 15.6562C23.3229 15.4896 23.5208 15.4062 23.75 15.4062C23.9792 15.4062 24.1771 15.4896 24.3438 15.6562C24.5104 15.8229 24.5938 16.0208 24.5938 16.25ZM26.9688 17.0938C26.9271 16.4896 26.8333 15.9688 26.6875 15.5312C26.5 15.0104 26.2083 14.5625 25.8125 14.1875C25.4375 13.7917 24.9896 13.5 24.4688 13.3125C24.0312 13.1667 23.5104 13.0833 22.9062 13.0625C22.3229 13.0208 21.3542 13 20 13C18.6458 13 17.6667 13.0208 17.0625 13.0625C16.4792 13.0833 15.9688 13.1667 15.5312 13.3125C15.0104 13.5 14.5521 13.7917 14.1562 14.1875C13.7812 14.5625 13.5 15.0104 13.3125 15.5312C13.1667 15.9688 13.0729 16.4896 13.0312 17.0938C13.0104 17.6771 13 18.6458 13 20C13 21.3542 13.0104 22.3333 13.0312 22.9375C13.0729 23.5208 13.1667 24.0312 13.3125 24.4688C13.5 24.9896 13.7812 25.4479 14.1562 25.8438C14.5521 26.2188 15.0104 26.4896 15.5312 26.6562C15.9688 26.8229 16.4792 26.9167 17.0625 26.9375C17.6667 26.9792 18.6458 27 20 27C21.3542 27 22.3229 26.9792 22.9062 26.9375C23.5104 26.9167 24.0312 26.8333 24.4688 26.6875C24.9896 26.5 25.4375 26.2188 25.8125 25.8438C26.2083 25.4479 26.5 24.9896 26.6875 24.4688C26.8333 24.0312 26.9167 23.5208 26.9375 22.9375C26.9792 22.3333 27 21.3542 27 20C27 18.6458 26.9896 17.6771 26.9688 17.0938ZM25.4688 24.125C25.2188 24.75 24.7708 25.1979 24.125 25.4688C23.7917 25.5938 23.2292 25.6771 22.4375 25.7188C22 25.7396 21.3542 25.75 20.5 25.75H19.5C18.6667 25.75 18.0208 25.7396 17.5625 25.7188C16.7917 25.6771 16.2292 25.5938 15.875 25.4688C15.25 25.2188 14.8021 24.7708 14.5312 24.125C14.4062 23.7708 14.3229 23.2083 14.2812 22.4375C14.2604 21.9792 14.25 21.3333 14.25 20.5V19.5C14.25 18.6667 14.2604 18.0208 14.2812 17.5625C14.3229 16.7708 14.4062 16.2083 14.5312 15.875C14.7812 15.2292 15.2292 14.7812 15.875 14.5312C16.2292 14.4062 16.7917 14.3229 17.5625 14.2812C18.0208 14.2604 18.6667 14.25 19.5 14.25H20.5C21.3333 14.25 21.9792 14.2604 22.4375 14.2812C23.2292 14.3229 23.7917 14.4062 24.125 14.5312C24.7708 14.7812 25.2188 15.2292 25.4688 15.875C25.5938 16.2083 25.6771 16.7708 25.7188 17.5625C25.7396 18 25.75 18.6458 25.75 19.5V20.5C25.75 21.3333 25.7396 21.9792 25.7188 22.4375C25.6771 23.2083 25.5938 23.7708 25.4688 24.125Z" fill="white"/>
</svg>
