<svg width="40" height="40" viewBox="0 0 40 40" fill="none" xmlns="http://www.w3.org/2000/svg">
<circle cx="20" cy="20" r="20" fill="#0077B5"/>
<path d="M16.125 27H13.2188V17.6562H16.125V27ZM14.6875 16.375C14.2292 16.375 13.8333 16.2083 13.5 15.875C13.1667 15.5417 13 15.1458 13 14.6875C13 14.2292 13.1667 13.8333 13.5 13.5C13.8333 13.1667 14.2292 13 14.6875 13C15.1458 13 15.5417 13.1667 15.875 13.5C16.2083 13.8333 16.375 14.2292 16.375 14.6875C16.375 15.1458 16.2083 15.5417 15.875 15.875C15.5417 16.2083 15.1458 16.375 14.6875 16.375ZM27 27H24.0938V22.4375C24.0938 21.6875 24.0312 21.1458 23.9062 20.8125C23.6771 20.25 23.2292 19.9688 22.5625 19.9688C21.8958 19.9688 21.4271 20.2188 21.1562 20.7188C20.9479 21.0938 20.8438 21.6458 20.8438 22.375V27H17.9688V17.6562H20.75V18.9375H20.7812C20.9896 18.5208 21.3229 18.1771 21.7812 17.9062C22.2812 17.5729 22.8646 17.4062 23.5312 17.4062C24.8854 17.4062 25.8333 17.8333 26.375 18.6875C26.7917 19.375 27 20.4375 27 21.875V27Z" fill="white"/>
</svg>
